HIERARCHY
ROOT Hips
{
	OFFSET 0.000000 0.000000 0.000000 
	CHANNELS 6 Xposition Yposition Zposition Zrotation Yrotation Xrotation
	JOINT LeftUpLeg
	{
		OFFSET 1.363060 -1.794630 0.839290 
		CHANNELS 3 Zrotation Yrotation Xrotation
		JOINT LeftLeg
		{
			OFFSET 2.448110 -6.726130 0.000000 
			CHANNELS 3 Zrotation Yrotation Xrotation
			JOINT LeftFoot
			{
				OFFSET 2.562200 -7.039590 0.000000 
				CHANNELS 3 Zrotation Yrotation Xrotation
				JOINT LeftToeBase
				{
					OFFSET 0.157640 -0.433110 2.322550 
					CHANNELS 3 Zrotation Yrotation Xrotation
					End Site
					{
						OFFSET 0.000000 0.000000 0.000000 
					}
				}
			}
		}
	}
	JOINT RightUpLeg
	{
		OFFSET -1.305520 -1.794630 0.839290 
		CHANNELS 3 Zrotation Yrotation Xrotation
		JOINT RightLeg
		{
			OFFSET -2.542530 -6.985550 0.000000 
			CHANNELS 3 Zrotation Yrotation Xrotation
			JOINT RightFoot
			{
				OFFSET -2.568260 -7.056230 0.000000 
				CHANNELS 3 Zrotation Yrotation Xrotation
				JOINT RightToeBase
				{
					OFFSET -0.164730 -0.452590 2.363150 
					CHANNELS 3 Zrotation Yrotation Xrotation
					End Site
					{
						OFFSET 0.000000 0.000000 0.000000 
					}
				}
			}
		}
	}
	JOINT Spine
	{
		OFFSET 0.028270 2.035590 -0.193380 
		CHANNELS 3 Zrotation Yrotation Xrotation
		JOINT Spine1
		{
			OFFSET 0.056720 2.048850 -0.042750 
			CHANNELS 3 Zrotation Yrotation Xrotation
			JOINT Neck1
			{
				OFFSET -0.054170 1.746240 0.172020 
				CHANNELS 3 Zrotation Yrotation Xrotation
				JOINT Head
				{
					OFFSET 0.104070 1.761360 -0.123970 
					CHANNELS 3 Zrotation Yrotation Xrotation
					End Site
					{
						OFFSET 0.000000 0.000000 0.000000 
					}
				}
			}
			JOINT LeftArm
			{
				OFFSET 3.362410 1.200890 -0.311210 
				CHANNELS 3 Zrotation Yrotation Xrotation
				JOINT LeftForeArm
				{
					OFFSET 4.983000 -0.000000 -0.000000 
					CHANNELS 3 Zrotation Yrotation Xrotation
					JOINT LeftHand
					{
						OFFSET 3.483560 -0.000000 -0.000000 
						CHANNELS 3 Zrotation Yrotation Xrotation
						JOINT LeftHandIndex1
						{
							OFFSET 0.715260 -0.000000 -0.000000 
							CHANNELS 3 Zrotation Yrotation Xrotation
							End Site
							{
								OFFSET 0.000000 0.000000 0.000000 
							}
						}
					}
				}
			}
			JOINT RightArm
			{
				OFFSET -3.136600 1.374050 -0.404650 
				CHANNELS 3 Zrotation Yrotation Xrotation
				JOINT RightForeArm
				{
					OFFSET -5.241900 -0.000000 -0.000000 
					CHANNELS 3 Zrotation Yrotation Xrotation
					JOINT RightHand
					{
						OFFSET -3.444170 -0.000000 -0.000000 
						CHANNELS 3 Zrotation Yrotation Xrotation
						JOINT RightHandIndex1
						{
							OFFSET -0.622530 -0.000000 -0.000000 
							CHANNELS 3 Zrotation Yrotation Xrotation
							End Site
							{
								OFFSET 0.000000 0.000000 0.000000 
							}
						}
					}
				}
			}
		}
	}
}
MOTION
Frames: 7
Frame Time: 0.041667
-1.143757 29.062652 -8.136453 178.659641 -34.360176 -174.249003 -12.839320 -17.498145 -13.822650 -0.642949 3.955263 15.931315 1.683468 -7.111660 6.578748 0.313800 -3.601400 -9.957800 15.189404 32.456188 -9.593642 -1.875915 -6.135073 24.028683 0.912145 -4.034628 -1.907833 -0.000100 0.052200 -0.143300 -8.079182 4.237865 14.588367 2.120695 2.444100 -10.911990 4.855859 2.106207 33.925693 3.046000 0.863300 9.354700 -79.853286 -0.763551 14.818303 13.520037 -20.636341 -2.608061 -0.863289 -1.169148 -4.204392 -7.125000 0.000000 0.000000 72.420197 -2.086188 23.079742 -15.027224 19.227867 -3.249348 1.291149 0.028232 16.585431 7.125000 0.000000 0.000000 
-1.109327 29.064592 -8.151097 178.646457 -35.023172 -174.202014 -12.675259 -17.753055 -13.807905 -0.664030 3.909999 15.808120 1.723413 -7.339429 6.910149 0.314500 -3.605100 -9.968200 15.352259 32.203732 -9.638616 -1.893140 -6.166682 24.114597 1.027698 -4.445058 -2.070034 0.000000 -0.002200 0.006000 -8.034645 4.272168 14.443042 1.976092 2.455601 -11.044242 5.182274 1.894756 34.247754 3.109300 0.805600 9.454400 -79.806023 -0.425782 15.126540 13.692691 -20.911305 -2.683717 -0.845542 -1.180553 -4.447130 -7.125000 0.000000 0.000000 72.314331 -2.060540 23.348463 -14.950209 19.116290 -3.211918 1.305307 0.029100 16.392998 7.125000 0.000000 0.000000 
-1.075285 29.065077 -8.168749 178.522073 -35.657688 -174.118298 -12.606441 -17.927603 -13.789648 -0.685145 3.866005 15.697288 1.774268 -7.647527 7.341718 0.294900 -3.492000 -9.651600 15.441632 32.014138 -9.643725 -1.912577 -6.201941 24.209827 1.142538 -4.849506 -2.234764 -0.000900 -0.195900 0.538300 -8.173098 4.301512 14.298874 1.892381 2.462032 -11.186055 5.231944 1.782336 34.584383 3.092700 0.773800 9.579400 -79.612618 -0.059989 15.681413 13.840949 -21.155481 -2.752052 -0.824182 -1.190834 -4.951547 -7.125000 0.000000 0.000000 72.303007 -1.896242 23.330514 -14.852186 18.962418 -3.164072 1.289210 0.040814 16.308777 7.125000 0.000000 0.000000 
-1.042503 29.064398 -8.185915 178.506279 -36.293612 -174.091871 -12.458156 -18.044308 -13.827557 -0.705611 3.830974 15.603641 1.830270 -7.976205 7.836772 0.265800 -3.316400 -9.160900 15.628272 31.777817 -9.672581 -1.932265 -6.234296 24.306649 1.247757 -5.215386 -2.341577 -0.003300 -0.370300 1.017300 -8.228843 4.333788 14.196693 1.768108 2.466318 -11.267306 5.262695 1.722200 34.587746 3.068700 0.767700 9.583800 -79.446501 0.223358 16.117575 13.932103 -21.310653 -2.795472 -0.816566 -1.194032 -5.204949 -7.125000 0.000000 0.000000 72.261633 -1.801298 23.546564 -14.776849 18.840896 -3.123038 1.321393 0.030028 16.237493 7.125000 0.000000 0.000000 
-1.010595 29.064883 -8.201918 178.379252 -37.013944 -173.981563 -12.439128 -18.245473 -13.861183 -0.718602 3.787939 15.529078 1.865519 -8.236668 8.263274 0.269500 -3.339200 -9.224500 15.651837 31.485589 -9.801677 -1.954075 -6.280007 24.420120 1.348215 -5.568739 -2.444684 -0.006000 -0.501500 1.378100 -7.847684 4.315335 14.365076 1.792642 2.474195 -11.145633 5.243068 1.710329 34.307018 3.049300 0.765700 9.490400 -79.633149 0.212846 15.997243 13.959652 -21.331802 -2.805740 -0.807771 -1.181859 -5.070224 -7.125000 0.000000 0.000000 72.010827 -1.553183 23.450680 -14.661945 18.665744 -3.065807 1.359504 -0.057312 16.728317 7.125000 0.000000 0.000000 
-0.979268 29.065368 -8.216757 178.383201 -37.817723 -174.028870 -12.367924 -18.439820 -13.871355 -0.727113 3.742746 15.485054 1.902028 -8.534424 8.809199 0.246000 -3.191800 -8.813200 15.767613 31.233869 -9.862984 -1.977506 -6.325252 24.528748 1.493987 -6.076459 -2.601918 -0.009300 -0.624300 1.715600 -6.443401 4.243818 15.171968 1.972842 2.505069 -10.673503 4.625956 1.862485 33.812854 2.896400 0.763200 9.382900 -80.336436 -0.257096 15.529860 13.935766 -21.222938 -2.785322 -0.811396 -1.158756 -4.643739 -7.125000 0.000000 0.000000 71.262088 -0.896636 23.472501 -14.546224 18.502694 -3.017771 1.322449 -0.074780 16.768942 7.125000 0.000000 0.000000 
-0.947554 29.065271 -8.231499 178.229665 -38.615391 -173.889860 -12.351679 -18.519104 -13.972951 -0.746340 3.706197 15.414117 1.975593 -9.023485 9.422747 0.234400 -3.116000 -8.601800 15.839393 30.994445 -9.922385 -2.005762 -6.372743 24.662364 1.644576 -6.601817 -2.852738 -0.012800 -0.731800 2.011000 -6.493368 4.219416 15.125823 1.897587 2.483937 -10.720872 4.543434 1.944200 33.907355 2.871400 0.803600 9.408700 -80.295780 -0.061959 16.004602 13.988181 -21.311712 -2.807081 -0.834845 -1.176484 -4.409673 -7.125000 0.000000 0.000000 71.303431 -0.861937 23.194559 -14.638301 18.639214 -3.061606 1.285467 -0.045888 16.875723 7.125000 0.000000 0.000000 
